<svg xmlns="http://www.w3.org/2000/svg" viewBox="0 0 64 64">
  <rect width="64" height="64" rx="12" fill="#050505"/>
  <!-- Radiating lines with endpoint dots -->
  <g stroke="white" stroke-opacity="0.3" stroke-width="0.8" fill="white" fill-opacity="0.3">
    <line x1="32" y1="30" x2="32" y2="8"/><circle cx="32" cy="8" r="1.5"/>
    <line x1="32" y1="30" x2="50" y2="14"/><circle cx="50" cy="14" r="1.5"/>
    <line x1="32" y1="30" x2="56" y2="30"/><circle cx="56" cy="30" r="1.5"/>
    <line x1="32" y1="30" x2="50" y2="48"/><circle cx="50" cy="48" r="1.5"/>
    <line x1="32" y1="30" x2="32" y2="56"/><circle cx="32" cy="56" r="1.5"/>
    <line x1="32" y1="30" x2="14" y2="48"/><circle cx="14" cy="48" r="1.5"/>
    <line x1="32" y1="30" x2="8" y2="30"/><circle cx="8" cy="30" r="1.5"/>
    <line x1="32" y1="30" x2="14" y2="14"/><circle cx="14" cy="14" r="1.5"/>
  </g>
  <!-- Star -->
  <polygon points="32,20 34.4,27.2 42,27.2 36,31.6 38.2,39 32,34.4 25.8,39 28,31.6 22,27.2 29.6,27.2" fill="white"/>
</svg>
